<svg  style="opacity: 0.1;" xmlns="http://www.w3.org/2000/svg" version="1.1" xmlns:xlink="http://www.w3.org/1999/xlink" xmlns:svgjs="http://svgjs.com/svgjs" width="1366" height="1000" preserveAspectRatio="none" viewBox="0 0 1366 1000">
    <g mask="url(&quot;#SvgjsMask1045&quot;)" fill="none">
        <path d="M468.11 580a24.49 24.49 0 1 0 18.67 45.28z" stroke="rgba(173, 60, 77, 1)"></path>
        <path d="M636.04 154.83 a54.59 54.59 0 1 0 109.18 0 a54.59 54.59 0 1 0 -109.18 0z" stroke="rgba(71, 136, 194, 1)"></path>
        <path d="M792.78 502.9a16 16 0 1 0-9.73-30.49z" stroke="rgba(78, 189, 173, 1)"></path>
        <path d="M911.93 216.91L972.55 216.91L972.55 277.53L911.93 277.53z" stroke="rgba(71, 136, 194, 1)"></path>
        <path d="M1354.39 659.93L1414.94 659.93L1414.94 746.48L1354.39 746.48z" fill="rgba(173, 60, 77, 1)"></path>
        <path d="M1228.47 922.2 a81.85 81.85 0 1 0 163.7 0 a81.85 81.85 0 1 0 -163.7 0z" fill="rgba(230, 172, 67, 1)"></path>
        <path d="M1094.25 164a93.59 93.59 0 1 0-161.15-95.23z" fill="rgba(78, 189, 173, 1)"></path>
        <path d="M240.04 776.24 a23.48 23.48 0 1 0 46.96 0 a23.48 23.48 0 1 0 -46.96 0z" fill="rgba(78, 189, 173, 1)"></path>
        <path d="M1198.61 209.58L1251.64 209.58L1251.64 262.61L1198.61 262.61z" stroke="rgba(71, 136, 194, 1)"></path>
        <path d="M1081.97 101.79L1136.61 101.79L1136.61 156.43L1081.97 156.43z" stroke="rgba(71, 136, 194, 1)"></path>
        <path d="M694.79 408.52 a40.02 40.02 0 1 0 80.04 0 a40.02 40.02 0 1 0 -80.04 0z" fill="rgba(71, 136, 194, 1)"></path>
        <path d="M66.18 545.61 a53.62 53.62 0 1 0 107.24 0 a53.62 53.62 0 1 0 -107.24 0z" fill="rgba(71, 136, 194, 1)"></path>
        <path d="M456.12 974.11L472.03 974.11L472.03 996.26L456.12 996.26z" fill="rgba(173, 60, 77, 1)"></path>
        <path d="M287.57 377.15 a10.84 10.84 0 1 0 21.68 0 a10.84 10.84 0 1 0 -21.68 0z" fill="rgba(173, 60, 77, 1)"></path>
        <path d="M1040.26 366.66 a57.65 57.65 0 1 0 115.3 0 a57.65 57.65 0 1 0 -115.3 0z" fill="rgba(230, 172, 67, 1)"></path>
        <path d="M1239.27 967.18a8.22 8.22 0 1 0 10.58-12.58z" stroke="rgba(71, 136, 194, 1)"></path>
        <path d="M1282.44 288.4L1330.62 288.4L1330.62 336.58L1282.44 336.58z" stroke="rgba(173, 60, 77, 1)"></path>
        <path d="M1166.61 57.82 a71.77 71.77 0 1 0 143.54 0 a71.77 71.77 0 1 0 -143.54 0z" fill="rgba(230, 172, 67, 1)"></path>
    </g>
    <defs>
        <mask id="SvgjsMask1045">
            <rect width="1366" height="1000" fill="#ffffff"></rect>
        </mask>
    </defs>
</svg>