<?xml version="1.0" encoding="utf-8"?>
<!-- Svg Vector Icons : http://www.onlinewebfonts.com/icon -->
<!DOCTYPE svg PUBLIC "-//W3C//DTD SVG 1.1//EN" "http://www.w3.org/Graphics/SVG/1.1/DTD/svg11.dtd">
<svg fill='#8e44ad' version="1.1" xmlns="http://www.w3.org/2000/svg" xmlns:xlink="http://www.w3.org/1999/xlink" x="0px" y="0px" viewBox="0 0 1000 1000" enable-background="new 0 0 1000 1000" xml:space="preserve">
<metadata> Svg Vector Icons : http://www.onlinewebfonts.com/icon </metadata>
<g><path d="M788.9,299.2c0-90-41.2-170.4-105.7-223.4l-35.4,168.5l-42.7-9l39.2-186.4C601.8,24.4,552.5,10.3,500,10.3c-53.9,0-104.3,14.8-147.5,40.5l38.8,184.5l-42.7,9L313.7,78.5c-62.7,53-102.6,132.2-102.6,220.7h-53.1v70.8h683.9v-70.8H788.9z"/><path d="M655,624.6C590.2,723,539.3,877.3,539.3,877.3l-11.2-210.6h-56.2l-11.2,210.6c0,0-50.9-154.3-115.7-252.6C63,660.2,10,810.1,10,989.7h980C990,810.1,937,660.2,655,624.6z"/><path d="M710,323.7c3.3,14.9,5.1,30.3,5.1,46.2C715.1,488.5,618.6,585,500,585c-118.6,0-215.1-96.5-215.1-215.1c0-15.9,1.8-31.3,5.1-46.2h-61.1c-2.5,15.2-4.1,30.5-4.1,46.2c0,73.5,28.6,142.6,80.6,194.6c52,52,121.1,80.6,194.6,80.6s142.6-28.6,194.6-80.6c52-52,80.6-121.1,80.6-194.6c0-15.7-1.6-31.1-4.1-46.2H710z"/><path d="M439.5,662.7l16.8,84.6h87.4l16.8-84.6H439.5z"/></g>
</svg>